<svg width="72" height="93" viewBox="0 0 72 93" fill="none" xmlns="http://www.w3.org/2000/svg">
<path d="M71.9596 55.6298C71.7831 48.7358 69.6348 42.0371 65.7694 36.3283C61.904 30.6194 56.4837 26.1399 50.1515 23.4211L45.7423 41.1601C48.3066 42.7943 50.4205 45.0462 51.8902 47.7097C53.3599 50.3731 54.1386 53.363 54.155 56.4057V56.4865C54.1483 61.0584 52.4217 65.4602 49.3187 68.8155C46.2158 72.1708 41.9641 74.2336 37.4102 74.5932L32.9989 92.3344C33.9377 92.4151 34.9104 92.4576 35.898 92.498H38.0623C47.1796 91.9698 55.7561 87.9951 62.0567 81.3783C68.3572 74.7614 71.9113 65.9963 72 56.8563L71.9596 55.6298Z" fill="#878A8F"/>
<path d="M26.3002 71.817C23.7153 70.1808 21.5849 67.9181 20.1061 65.2387C18.6274 62.5592 17.8482 59.5495 17.8407 56.4885V56.4077C17.8683 51.8443 19.6087 47.458 22.7168 44.1189C25.8248 40.7799 30.0733 38.7321 34.6195 38.3818L39.0308 20.6023L37.3572 20.4791H17.7642V0H0V51.6547V56.4779C0.0129049 63.5253 2.08928 70.4144 5.97238 76.2933C9.85549 82.1722 15.375 86.7832 21.8485 89.556L26.3002 71.817Z" fill="#26292E"/>
</svg>
