<?xml version="1.0" encoding="utf-8"?>
<!-- Generator: Adobe Illustrator 21.0.2, SVG Export Plug-In . SVG Version: 6.00 Build 0)  -->
<svg version="1.1" id="Layer_1" xmlns="http://www.w3.org/2000/svg" xmlns:xlink="http://www.w3.org/1999/xlink" x="0px" y="0px"
	 viewBox="0 0 100 100" style="enable-background:new 0 0 100 100;" xml:space="preserve">
<style type="text/css">
	.st0{fill:#626464;}
</style>
<path class="st0" d="M85.6,85.1V74.7H96V23.3H85.6V12.9H96V3H3.8v9.9h9.6v10.5H3.8v51.3h9.6v10.5H3.8v10.1H96V85.1H85.6z M54.7,85.1
	H44.3V74.7h10.5V85.1z M54.7,23.3H44.3V12.9h10.5V23.3z M76.4,85.1H65.9V74.7h10.5V85.1z M76.4,23.3H65.9V12.9h10.5V23.3z
	 M33.5,85.1H23V74.7h10.5V85.1z M33.5,23.3H23V12.9h10.5V23.3z"/>
</svg>
